<?xml version="1.0" encoding="utf-8"?>
<!-- Generator: Adobe Illustrator 27.5.0, SVG Export Plug-In . SVG Version: 6.00 Build 0)  -->
<svg version="1.1" xmlns="http://www.w3.org/2000/svg" xmlns:xlink="http://www.w3.org/1999/xlink"
  viewBox="300 30 2000 1400" xml:space="preserve">
  <g id="Objects">
    <g>
      <path fill="#47acce" d="M1776.247,744.831l25.084,153.457l-146.304-22.818c-59.465,38.937-131.129,61.669-208.267,61.669
        c-14.22,0-28.244-0.772-42.048-2.278c18.74-53.708,28.893-111.237,28.893-171.082c0-186.612-98.781-350.823-248.38-446.114
        c67.291-64.29,159.642-103.95,261.534-103.95c205.903,0,372.821,161.945,372.821,361.712
        C1819.581,636.631,1803.903,694.283,1776.247,744.831z"/>
      <path fill="#1A1F3D" d="M438.94,992.563l-33.89,207.257l197.593-30.813c80.308,52.581,177.102,83.278,281.277,83.278
        c278.075,0,503.501-218.712,503.501-488.506S1161.995,275.274,883.92,275.274S380.419,493.986,380.419,763.779
        C380.419,846.439,401.577,924.309,438.94,992.563z"/>
      <g>
        <path fill="#FFFFFF" d="M907.12,907.833h-44.173c-10.293,0-18.226-9.09-16.824-19.287
          c7.556-54.954,46.473-94.109,81.226-129.072c37.131-37.357,69.197-69.619,69.197-116.529
          c0-62.328-50.707-113.034-113.034-113.034c-57.285,0-104.755,42.835-112.06,98.158c-1.121,8.489-8.277,14.877-16.84,14.877
          h-43.728c-9.998,0-17.873-8.603-16.906-18.554c9.357-96.33,90.789-171.877,189.534-171.877
          c105.004,0,190.43,85.427,190.43,190.43c0,35.938-10.401,69.254-31.797,101.852c-17.335,26.41-38.976,48.182-59.905,69.238
          c-27.845,28.015-52.408,52.727-58.556,80.489C921.964,902.297,915.082,907.833,907.12,907.833z"/>
        <circle fill="#FFFFFF" cx="883.512" cy="1023.847" r="51.198"/>
      </g>
    </g>
  </g>
</svg>

